<svg width="20" height="20" viewBox="0 0 20 20" fill="none" xmlns="http://www.w3.org/2000/svg">
<g clip-path="url(#clip0_77_920)">
<path d="M19.9895 10.1871C19.9895 9.36767 19.9214 8.76973 19.7742 8.14966H10.1992V11.848H15.8195C15.7062 12.7671 15.0943 14.1512 13.7346 15.0813L13.7155 15.2051L16.7429 17.4969L16.9527 17.5174C18.8789 15.7789 19.9895 13.221 19.9895 10.1871Z" fill="#4285F4"/>
<path d="M10.1992 19.9314C12.9527 19.9314 15.2642 19.0456 16.9526 17.5175L13.7345 15.0814C12.8734 15.6683 11.7176 16.078 10.1992 16.078C7.50236 16.078 5.21346 14.3396 4.39753 11.9368L4.27793 11.9467L1.12997 14.3274L1.08881 14.4392C2.76582 17.6946 6.21054 19.9314 10.1992 19.9314Z" fill="#319D4D"/>
<path d="M4.39754 11.9368C4.18225 11.3167 4.05765 10.6523 4.05765 9.96583C4.05765 9.27927 4.18225 8.61492 4.38621 7.99484L4.38051 7.86278L1.1931 5.44385L1.08882 5.49232C0.397637 6.84324 0.0010376 8.36026 0.0010376 9.96583C0.0010376 11.5714 0.397637 13.0884 1.08882 14.4393L4.39754 11.9368Z" fill="#AF8303"/>
<path d="M10.1992 3.85336C12.1142 3.85336 13.4059 4.66168 14.1425 5.33718L17.0206 2.59107C15.253 0.985496 12.9527 0 10.1992 0C6.21054 0 2.76582 2.23672 1.08881 5.49214L4.3862 7.99466C5.21346 5.59183 7.50236 3.85336 10.1992 3.85336Z" fill="#EB4335"/>
</g>
<defs>
<clipPath id="clip0_77_920">
<rect width="20" height="20" fill="white"/>
</clipPath>
</defs>
</svg>
